<?xml version="1.0" standalone="no"?>
<!DOCTYPE svg PUBLIC "-//W3C//DTD SVG 20010904//EN"
 "http://www.w3.org/TR/2001/REC-SVG-20010904/DTD/svg10.dtd">
<svg version="1.0" xmlns="http://www.w3.org/2000/svg"
 width="1228.000000pt" height="1280.000000pt" viewBox="0 0 1228.000000 1280.000000"
 preserveAspectRatio="xMidYMid meet">
<g transform="translate(0.000000,1280.000000) scale(0.100000,-0.100000)"
fill="#000000" stroke="none">
<path d="M4679 12611 c-107 -21 -182 -123 -248 -336 -58 -189 -97 -428 -171
-1042 -57 -471 -59 -483 -81 -483 -18 0 -94 31 -674 277 -896 380 -1418 563
-1604 563 -124 0 -154 -68 -111 -247 90 -377 575 -1384 859 -1784 35 -49 65
-88 67 -86 3 2 -37 73 -87 158 -120 205 -253 473 -316 639 -146 385 -228 817
-178 945 44 117 102 106 535 -100 334 -159 791 -391 995 -506 180 -101 420
-254 444 -283 27 -32 -29 -264 -99 -414 -50 -107 -109 -189 -201 -281 -135
-135 -254 -223 -809 -598 -404 -273 -549 -374 -740 -519 -603 -457 -916 -842
-1073 -1322 -82 -249 -110 -457 -122 -897 -3 -121 -11 -276 -16 -345 -28 -338
-136 -717 -320 -1124 -73 -161 -150 -301 -272 -492 -150 -236 -187 -324 -187
-445 0 -232 238 -641 548 -940 169 -164 279 -234 504 -324 154 -61 212 -98
363 -230 267 -232 425 -321 680 -385 171 -43 293 -53 552 -47 407 9 797 80
1302 236 90 28 169 51 176 51 48 0 350 -419 921 -1275 194 -291 364 -543 379
-560 l26 -30 -5 27 c-10 44 -117 271 -216 457 -254 479 -480 841 -788 1260
-79 107 -139 198 -135 202 4 4 67 39 138 76 158 84 288 165 447 279 l120 86
86 -58 c172 -114 500 -370 815 -636 289 -244 526 -458 1107 -998 488 -454 531
-493 634 -583 136 -119 151 -118 59 3 -213 281 -664 770 -1093 1185 -427 413
-800 718 -1280 1050 -102 70 -190 133 -197 139 -9 8 10 35 78 110 104 114 133
153 121 160 -4 3 -70 -35 -145 -84 -76 -50 -147 -94 -158 -100 -16 -9 -54 9
-242 118 -255 149 -501 281 -667 360 -321 151 -288 119 195 -193 318 -205 524
-345 543 -368 11 -13 -3 -25 -90 -79 -196 -123 -584 -323 -613 -316 -7 2 -75
71 -153 154 -146 157 -303 307 -410 393 -140 112 -112 68 251 -394 87 -110
156 -206 155 -214 -4 -17 -172 -89 -356 -152 -480 -163 -871 -198 -1275 -113
-433 91 -1058 385 -1465 689 -190 142 -279 247 -297 352 -14 88 42 229 211
524 213 376 265 522 215 605 -29 48 -73 58 -215 50 -67 -4 -158 -10 -204 -15
-97 -9 -160 -1 -180 26 -39 52 6 155 220 499 240 387 332 564 397 767 47 148
55 203 55 352 0 150 -9 218 -55 415 -74 310 -87 411 -69 540 37 272 207 563
583 994 640 734 1426 1257 2172 1445 185 46 323 68 665 106 361 40 404 47 559
81 347 78 584 223 680 418 94 191 87 475 -18 795 -72 217 -165 406 -327 663
-126 200 -174 280 -174 294 0 23 68 29 109 9 58 -28 222 -143 841 -593 1183
-861 1798 -1321 2290 -1716 647 -518 1110 -955 1527 -1441 323 -378 588 -729
1158 -1540 396 -563 623 -865 651 -865 17 0 14 7 -51 147 -145 307 -510 910
-833 1373 -733 1051 -1645 2052 -2587 2841 -539 451 -1010 799 -2254 1669
-344 240 -740 518 -878 618 -341 244 -487 330 -588 347 -22 4 -47 8 -55 10 -8
1 -31 -1 -51 -4z"/>
<path d="M2855 6880 c-294 -18 -618 -84 -678 -138 -48 -43 -42 -67 43 -176 46
-59 139 -198 245 -363 61 -97 141 -178 200 -204 151 -67 385 -10 641 156 156
101 266 228 358 412 59 118 107 162 214 193 23 7 42 17 42 22 0 4 -2 8 -4 8
-2 0 -46 9 -97 19 -135 28 -398 60 -589 71 -178 11 -195 11 -375 0z"/>
<path d="M4234 3942 c6 -11 127 -63 391 -172 110 -45 313 -137 450 -204 500
-245 843 -461 1686 -1062 404 -288 591 -416 598 -409 13 13 -273 282 -513 482
-533 446 -954 729 -1431 963 -349 171 -658 288 -984 371 -153 38 -207 47 -197
31z"/>
</g>
</svg>
